HIERARCHY
ROOT ui
{
	 OFFSET 0 0 0
	 CHANNELS 3 XPosition YPosition Z Position
	 EndSite
	 {
	 OFFSET 0 -1 0
	 }
}
ROOT li
{
	 OFFSET 0 0 0
	 CHANNELS 3 XPosition YPosition Z Position
	 EndSite
	 {
	 OFFSET 0 -1 0
	 }
}
ROOT ul
{
	 OFFSET 0 0 0
	 CHANNELS 3 XPosition YPosition Z Position
	 EndSite
	 {
	 OFFSET 0 -1 0
	 }
}
ROOT ll
{
	 OFFSET 0 0 0
	 CHANNELS 3 XPosition YPosition Z Position
	 EndSite
	 {
	 OFFSET 0 -1 0
	 }
}
ROOT tt
{
	 OFFSET 0 0 0
	 CHANNELS 3 XPosition YPosition Z Position
	 EndSite
	 {
	 OFFSET 0 -1 0
	 }
}
ROOT tb
{
	 OFFSET 0 0 0
	 CHANNELS 3 XPosition YPosition Z Position
	 EndSite
	 {
	 OFFSET 0 -1 0
	 }
}
ROOT td
{
	 OFFSET 0 0 0
	 CHANNELS 3 XPosition YPosition Z Position
	 EndSite
	 {
	 OFFSET 0 -1 0
	 }
}
ROOT v
{
	 OFFSET 0 0 0
	 CHANNELS 3 XPosition YPosition Z Position
	 EndSite
	 {
	 OFFSET 0 -1 0
	 }
}
ROOT bn
{
	 OFFSET 0 0 0
	 CHANNELS 3 XPosition YPosition Z Position
	 EndSite
	 {
	 OFFSET 0 -1 0
	 }
}
MOTION
Frames: 18
Frame Time: 0.002
-6.676470041275024E-4	1.4923299849033356E-4	0		0.5313634643554688	-2.30950341796875	0		-1.077360107421875	0.03533811569213867	0		-0.6427626953125	-2.219299072265625	0		1.8133612060546875	-0.4877251281738281	0		3.412459716796875	-0.005313930988311767	0		4.7854560546875	0.08342523956298828	0		5.64553271484375	0.14379791259765626	0		-0.26609881591796875	5.92722705078125	0		
-0.0041952838897705074	-0.003183475971221924	0		0.5297796630859375	-2.311872314453125	0		-1.0498363037109375	0.03671314239501953	0		-0.6103873901367187	-2.22598828125	0		1.8438697509765625	-0.48646456909179686	0		3.389766357421875	-0.02454606056213379	0		4.77699365234375	0.08600653076171876	0		5.64298388671875	0.13083680725097657	0		-0.28051776123046873	5.91801708984375	0		
-0.0058060002326965334	-0.01354348087310791	0		0.5282012939453125	-2.3132470703125	0		-1.0493311767578124	0.03735957336425781	0		-0.6099426879882812	-2.225353515625	0		1.8443609619140624	-0.4858954162597656	0		3.399342529296875	-0.01711259651184082	0		4.782416015625	0.07844554138183593	0		5.63913525390625	0.14905828857421874	0		-0.24579470825195313	5.924287109375	0		
-0.0032021470069885254	-0.001960921049118042	0		0.5286337280273438	-2.312656005859375	0		-1.0488411865234375	0.0379892578125	0		-0.6214551391601563	-2.219609375	0		1.844838134765625	-0.485336669921875	0		3.405757568359375	-0.023654403686523436	0		4.774771484375	0.06601673889160156	0		5.643685546875	0.13246084594726562	0		-0.26510690307617185	5.9301064453125	0		
-0.00980537986755371	-0.00830320644378662	0		0.5020744018554687	-2.30980078125	0		-1.085368408203125	0.03898470687866211	0		-0.6840628051757812	-2.221350341796875	0		1.845297119140625	-0.48479403686523437	0		3.414436279296875	-0.0032316720485687255	0		4.78744140625	0.08536698913574219	0		5.64693115234375	0.14702359008789062	0		-0.24455821228027344	5.925486328125	0		
0.0017572129964828491	0.0031402390003204346	0		0.5335050659179688	-2.30657763671875	0		-1.042890625	0.04212453842163086	0		-0.6066644287109375	-2.22158642578125	0		1.8487769775390626	-0.4803037719726562	0		3.410737060546875	-0.01669868278503418	0		4.783828125	0.07987165832519531	0		5.64013037109375	0.15143852233886718	0		-0.2639364929199219	5.93126123046875	0		
-0.004892189979553222	-0.00325370192527771	0		0.5249707641601562	-2.297961181640625	0		-1.0844952392578124	0.04011841583251953	0		-0.6422483520507812	-2.217664306640625	0		1.84919189453125	-0.4798062133789063	0		3.430306884765625	-0.002431052923202515	0		4.78831640625	0.08627214813232421	0		5.6475478515625	0.14853872680664063	0		-0.24345599365234374	5.92658740234375	0		
-0.0014616390466690064	2.163020074367523E-4	0		0.5301925048828126	-2.3105205078125	0		-1.0470975341796875	0.04024871063232422	0		-0.6079424438476563	-2.222509765625	0		1.8465406494140626	-0.4833047790527344	0		3.407496337890625	-0.021745256423950195	0		4.7946533203125	0.08062763214111328	0		5.6449169921875	0.13547369384765626	0		-0.27800457763671876	5.922462890625	0		
-0.008160979270935058	-0.006240259170532227	0		0.521613037109375	-2.3019658203125	0		-1.0837205810546875	0.0411262321472168	0		-0.6096370239257812	-2.22500927734375	0		1.84690673828125	-0.48286660766601563	0		3.40108203125	-0.001260408043861389	0		4.78502978515625	0.08112206268310547	0		5.64518212890625	0.1361247100830078	0		-0.2765417785644531	5.92192626953125	0		
-0.007810873985290527	-0.005805527210235596	0		0.5308397827148438	-2.309634521484375	0		-1.0774229736328125	0.036515647888183594	0		-0.6072921752929688	-2.221585693359375	0		1.855227294921875	-0.48454730224609377	0		3.426187255859375	-0.02414566421508789	0		4.78337060546875	0.0804982681274414	0		5.652546875	0.13307424926757813	0		-0.294060302734375	5.9255556640625	0		
0.008580097198486328	4.2399200797080993E-4	0		0.5221719360351562	-2.305149169921875	0		-1.0730517578125	0.040890583038330076	0		-0.5999276123046875	-2.214250732421875	0		1.850611328125	-0.47812677001953124	0		3.409876708984375	0.010373883247375489	0		4.79384814453125	0.09470977020263673	0		5.64857568359375	0.15101145935058594	0		-0.2605592041015625	5.93260986328125	0		
-9.932100027799606E-5	0.0018834140300750732	0		0.5354510498046875	-2.30393212890625	0		-1.040700927734375	0.04493345260620117	0		-0.6047096557617188	-2.21882275390625	0		1.8509124755859374	-0.4777950134277344	0		3.412920654296875	-0.014352041244506836	0		4.78602197265625	0.0820757827758789	0		5.64458251953125	0.16715310668945313	0		-0.309313232421875	5.91749951171875	0		
1.9396600127220153E-4	0.0022125918865203856	0		0.524756591796875	-2.29849609375	0		-1.0454384765625	0.042334720611572264	0		-0.6163919067382813	-2.21235546875	0		1.84815478515625	-0.481467041015625	0		3.413213623046875	-0.014084346771240234	0		4.78631640625	0.08231874084472657	0		5.64608740234375	0.1381048583984375	0		-0.2748515014648438	5.92347265625	0		
-0.0016436710357666015	-0.008470999717712402	0		0.5318868408203125	-2.30828515625	0		-1.0451583251953125	0.04264839553833008	0		-0.608270751953125	-2.22313427734375	0		1.84842529296875	-0.4812064819335938	0		3.433406494140625	-0.02206514549255371	0		4.78659716796875	0.08252532958984375	0		5.64628466796875	0.13843829345703124	0		-0.24040135192871093	5.9294091796875	0		
-0.0022905459403991697	-2.0055800676345824E-4	0		0.5051350708007812	-2.305746826171875	0		-1.0818875732421875	0.043322673797607424	0		-0.606011962890625	-2.219884521484375	0		1.851726806640625	-0.4770125732421875	0		3.41790966796875	3.013310134410858E-4	0		4.7909306640625	0.08865438079833984	0		5.64938671875	0.15247732543945314	0		-0.2448639831542969	5.9447265625	0		
-0.00394592809677124	0.008047239303588867	0		0.5384036254882812	-2.300882080078125	0		-1.0716390380859375	0.042462379455566406	0		-0.6377167358398438	-2.212304931640625	0		1.8550196533203125	-0.47285177612304685	0		3.418933349609375	-0.021543542861938478	0		4.795265625	0.09575076293945313	0		5.64956982421875	0.1526949462890625	0		-0.25960272216796876	5.93511865234375	0		
0.010242375373840332	0.0020921239852905275	0		0.5365943603515625	-2.30267578125	0		-1.0393441162109376	0.046333061218261716	0		-0.60355859375	-2.217462890625	0		1.8522218017578125	-0.47665823364257814	0		3.43232470703125	-0.008550276756286621	0		4.7873818359375	0.08294575500488281	0		5.646833984375	0.139094482421875	0		-0.27336032104492186	5.92446826171875	0		
-6.137959957122803E-4	-0.0076273131370544435	0		0.5238375244140625	-2.2993837890625	0		-1.0811226806640626	0.04396400451660156	0		-0.6152818603515625	-2.211161865234375	0		1.8524638671875	-0.4765283508300781	0		3.414522216796875	-0.013254632949829101	0		4.7876337890625	0.08302442169189453	0		5.6457138671875	0.1686531982421875	0		-0.23993336486816405	5.93128076171875	0		
